<?xml version="1.0" standalone="no"?>
<!DOCTYPE svg PUBLIC "-//W3C//DTD SVG 20010904//EN"
 "http://www.w3.org/TR/2001/REC-SVG-20010904/DTD/svg10.dtd">
<svg version="1.0" xmlns="http://www.w3.org/2000/svg"
 width="425.009235pt" height="476.700166pt" viewBox="0 0 425.009235 476.700166"
 preserveAspectRatio="xMidYMid meet">
<metadata>
Created by potrace 1.12, written by Peter Selinger 2001-2015
</metadata>
<g transform="translate(-32.554454,491.785713) scale(0.100000,-0.100000)"
fill="#000000" stroke="none">
<path d="M4484 4813 c-258 -314 -474 -571 -505 -598 -47 -41 -53 -43 -373
-134 -171 -49 -286 -87 -297 -98 -22 -22 -101 -406 -84 -411 9 -2 167 42 564
158 79 23 147 38 151 33 4 -4 4 -39 0 -78 -9 -80 -31 -107 -103 -125 -145 -37
-616 -174 -638 -186 -21 -11 -30 -25 -39 -66 -19 -90 -34 -197 -28 -203 5 -6
239 58 577 156 74 21 142 39 152 39 19 0 19 2 0 -114 -8 -52 -36 -71 -156
-105 -55 -16 -239 -68 -410 -116 -170 -48 -326 -96 -346 -106 -34 -17 -246
-258 -416 -472 l-63 -79 0 -1069 c0 -588 2 -1069 5 -1069 6 0 22 25 291 466
127 210 317 518 421 685 105 167 272 441 373 609 101 168 204 337 230 375 26
39 97 151 157 250 61 99 152 248 203 330 51 83 102 169 112 191 10 23 38 167
63 320 44 267 78 474 199 1194 30 178 53 326 52 328 -2 2 -44 -45 -92 -105z
m-754 -2047 c0 -16 -206 -271 -266 -329 -57 -55 -693 -457 -723 -457 -6 0 -11
5 -11 12 0 19 289 564 308 581 13 11 645 202 685 206 4 1 7 -5 7 -13z"/>
<path d="M3180 4725 c-214 -265 -454 -547 -477 -562 -20 -13 -54 -19 -127 -23
l-101 -5 0 -170 0 -170 78 -3 c52 -2 77 -7 77 -15 0 -15 -60 -222 -113 -392
l-41 -130 -4 -270 c-2 -148 -2 -306 0 -349 l3 -79 195 234 c220 263 233 280
248 329 6 19 34 154 61 300 28 146 69 351 91 455 64 298 181 898 178 914 -2 9
-29 -17 -68 -64z"/>
<path d="M2140 4133 c-117 -8 -319 -37 -450 -64 -146 -31 -405 -111 -483 -150
-87 -44 -89 -51 -56 -209 18 -81 28 -106 53 -134 17 -19 189 -140 381 -268
193 -129 432 -289 532 -356 99 -67 184 -122 187 -122 3 0 6 98 6 218 l0 217
-313 210 c-171 116 -310 215 -307 220 3 6 108 10 275 10 149 0 287 1 308 3
l37 2 0 215 0 215 -62 -2 c-35 -1 -83 -3 -108 -5z"/>
<path d="M326 3931 c-5 -8 58 -329 207 -1041 12 -57 28 -111 37 -120 14 -14
442 -329 580 -428 42 -30 69 -37 300 -82 445 -86 470 -90 470 -71 0 9 -29 186
-64 393 -40 242 -69 386 -80 403 -9 14 -166 124 -349 246 -182 122 -345 233
-360 248 -25 24 -32 48 -65 211 -32 153 -41 184 -57 190 -11 4 -58 10 -105 14
-47 4 -152 13 -235 21 -82 8 -178 17 -211 21 -37 3 -64 1 -68 -5z m789 -715
c226 -152 418 -286 428 -298 19 -25 36 -128 21 -128 -5 0 -120 75 -254 166
-135 91 -329 221 -431 289 -103 68 -190 128 -193 134 -10 15 -25 114 -19 124
6 10 -3 16 448 -287z m-122 -233 c127 -86 318 -214 424 -285 138 -91 194 -134
197 -150 13 -56 15 -97 6 -103 -5 -3 -103 58 -217 135 -114 77 -298 201 -408
274 -237 158 -244 165 -259 249 -6 30 -4 37 9 37 8 0 120 -71 248 -157z"/>
<path d="M1975 2828 c12 -76 65 -453 80 -573 23 -188 33 -481 27 -786 l-5
-266 83 -6 c46 -3 98 -3 116 0 l34 6 0 722 0 723 -163 106 c-90 58 -167 106
-171 106 -4 0 -4 -15 -1 -32z"/>
<path d="M4207 2683 c-76 -117 -358 -578 -468 -763 -197 -332 -227 -382 -323
-534 -331 -525 -636 -1019 -633 -1023 2 -1 138 56 302 126 165 71 413 177 550
235 138 59 260 114 272 122 13 8 29 27 38 44 8 16 41 208 75 447 33 230 73
492 90 583 16 91 43 255 60 365 18 110 40 251 51 314 10 63 17 117 14 119 -2
2 -15 -13 -28 -35z"/>
<path d="M670 2453 c0 -10 13 -189 30 -398 16 -209 38 -514 50 -677 11 -171
25 -310 32 -327 7 -15 60 -68 118 -117 58 -48 157 -134 220 -189 151 -132 220
-188 225 -184 2 2 5 275 6 606 2 528 1 604 -13 625 -8 13 -69 63 -135 113
l-120 89 -23 95 c-27 115 -38 138 -82 172 -60 46 -295 209 -302 209 -3 0 -6
-8 -6 -17z"/>
<path d="M1735 1896 c-94 -46 -182 -94 -197 -106 l-28 -21 0 -674 0 -674 92
-81 c51 -44 97 -79 102 -77 10 3 35 68 130 333 33 94 68 181 77 195 16 24 18
24 208 27 l191 3 0 110 0 109 -178 0 c-125 0 -182 4 -190 12 -9 9 -12 127 -12
470 0 361 -3 458 -13 458 -6 0 -89 -38 -182 -84z"/>
<path d="M2027 642 c-9 -10 -46 -97 -81 -193 -35 -96 -73 -198 -85 -228 -11
-30 -18 -57 -15 -60 8 -9 369 -14 419 -6 l45 6 0 250 0 249 -133 0 c-117 0
-136 -2 -150 -18z"/>
</g>
</svg>
